# xmcd
#
# Track frame offsets:
#	150
#	18321
#	32340
#	46417
#	59769
#	73315
#	87680
#	107254
#	123948
#	140083
#	157827
#	171636
#	189216
#	203821
#	221311
#	237585
#	253191
#	268883
#	284703
#	298859
#	314375
#	329486
#
# Disc length: 4587 seconds
#
# Revision: 1
# Processed by: cddbd v1.5.2PL0 Copyright (c) Steve Scherf et al.
# Submitted via: dBpowerAMP V4.0
#
DISCID=6011e916
DTITLE=Various Artist - ERG Nu Country Traxx Vol. 193 CAN
DYEAR=2010
DGENRE=Country
TTITLE0=Uncle Kracker ft. Kid Rock - Good To Be Me
TTITLE1=Emerson Drive - That Kind Of Beautiful
TTITLE2=One More Girl - The Day I Fall
TTITLE3=Leann Rimes - Swingin'
TTITLE4=Billy Currington - Pretty Good At Drinkin' Beer
TTITLE5=Miranda Lambert - Only Prettier
TTITLE6=Sara Evans - A Little Bit Stronger
TTITLE7=Jewel - Satisfied
TTITLE8=John Rich - Country Done Come To Town
TTITLE9=Aaron Lines - The Trouble With California
TTITLE10=Kevin Fowler - Pound Sign (#?*!)
TTITLE11=Johnny Reid - Today I'm Gonna Try And Change The World
TTITLE12=Eric Church - Smoke A Little Smoke
TTITLE13=Danny Gokey - I Will Not Say Goodbye
TTITLE14=Darryl Worley - Keep The Change
TTITLE15=Chris Cummings - Heart Like A Stone
TTITLE16=Locash Cowboys - Here Comes Summer
TTITLE17=James Wesley - Real
TTITLE18=Chris Young - Voices
TTITLE19=Williams Riley - Makes Me Go (La La)
TTITLE20=Higgins, The - Dreamers Like Us
TTITLE21=Chad Brownlee - Hood Of My Car
EXTD=
EXTT0=
EXTT1=
EXTT2=
EXTT3=
EXTT4=
EXTT5=
EXTT6=
EXTT7=
EXTT8=
EXTT9=
EXTT10=
EXTT11=
EXTT12=
EXTT13=
EXTT14=
EXTT15=
EXTT16=
EXTT17=
EXTT18=
EXTT19=
EXTT20=
EXTT21=
PLAYORDER=
